{"title":"Maze Runner The Scorch Trials 2015 HDRip KORSUB x264","uid":12674920,"size":1216407184,"categoryP":"video","categoryS":"movies","magnet":"?xt=urn:btih:22d82b0c3ba99d6e677cc5898e1444e02b05e034&amp;dn=Maze+Runner+The+Scorch+Trials+2015+HDRip+KORSUB+x264&amp;tr=udp%3A%2F%2Ftracker.leechers-paradise.org%3A6969&amp;tr=udp%3A%2F%2Fzer0day.ch%3A1337&amp;tr=udp%3A%2F%2Fopen.demonii.com%3A1337&amp;tr=udp%3A%2F%2Ftracker.coppersurfer.tk%3A6969&amp;tr=udp%3A%2F%2Fexodus.desync.com%3A6969","seeders":0,"leechers":2,"uploader":"TheRival","files":4,"time":1446495853,"description":"Screens:  \nhttp://extraimago.com/image/JBM  \nhttp://extraimago.com/image/JBU  \nhttp://extraimago.com/image/JBz  \nhttp://extraimago.com/image/JB0  \nhttp://extraimago.com/image/JBJ  \nhttp://extraimago.com/image/JBK\r\n\r\nVideo\r\nID                                       : 1\r\nFormat                                   : AVC\r\nFormat/Info                              : Advanced Video Codec\r\nFormat profile                           :   \r\nFormat settings, CABAC                   : Yes\r\nFormat settings, ReFrames                : 5 frames\r\nCodec ID                                 : avc1\r\nCodec ID/Info                            : Advanced Video Coding\r\nDuration                                 : 2h 11mn\r\nBit rate                                 : 1 100 Kbps\r\nWidth                                    : 720 pixels\r\nHeight                                   : 400 pixels\r\nDisplay aspect ratio                     : 16:9\r\nFrame rate mode                          : Constant\r\nFrame rate                               : 29.970 fps\r\nColor space                              : YUV\r\nChroma subsampling                       : 4:2:0\r\nBit depth                                : 8 bits\r\nScan type                                : Progressive\r\nBits/(Pixel*Frame)                       : 0.127\r\nStream size                              : 1.01 GiB (89%)\r\nTitle                                    : Maze.Runner.The.Scorch.Trials.2015.HDRip.KORSUB.x264-RARBG\r\nWriting library                          : x264 core 146 r2555 0c21480\r\nEncoding settings                        : cabac=1 / ref=5 / deblock=1:-2:-2 / analyse=0x3:0x113 / me=umh / subme=8 / psy=1 / psy_rd=0.90:0.00 / mixed_ref=1 / me_range=16 / chroma_me=1 / trellis=1 / 8x8dct=1 / cqm=0 / deadzone=21,11 / fast_pskip=1 / chroma_qp_offset=-2 / threads=8 / lookahead_threads=2 / sliced_threads=0 / nr=0 / decimate=1 / interlaced=0 / bluray_compat=0 / constrained_intra=0 / bframes=3 / b_pyramid=2 / b_adapt=2 / b_bias=0 / direct=3 / weightb=1 / open_gop=0 / weightp=2 / keyint=250 / keyint_min=25 / scenecut=40 / intra_refresh=0 / rc_lookahead=50 / rc=abr / mbtree=1 / bitrate=1100 / ratetol=1.0 / qcomp=0.60 / qpmin=0 / qpmax=69 / qpstep=4 / vbv_maxrate=31250 / vbv_bufsize=31250 / nal_hrd=none / filler=0 / ip_ratio=1.40 / aq=1:1.00\r\n\r\nAudio\r\nID                                       : 2\r\nFormat                                   : AAC\r\nFormat/Info                              : Advanced Audio Codec\r\nFormat profile                           : LC\r\nCodec ID                                 : 40\r\nDuration                                 : 2h 11mn\r\nBit rate mode                            : Variable\r\nBit rate                                 : 128 Kbps\r\nMaximum bit rate                         : 31.3 Mbps\r\nChannel(s)                               : 2 channels\r\nChannel positions                        : Front: L R\r\nSampling rate                            : 48.0 KHz\r\nCompression mode                         : Lossy\r\nStream size                              : 120 MiB (10%)\r\nTitle                                    : Maze.Runner.The.Scorch.Trials.2015.HDRip.KORSUB.x264-RARBG","torrent":{"xt":"urn:btih:22d82b0c3ba99d6e677cc5898e1444e02b05e034","amp;dn":"Maze+Runner+The+Scorch+Trials+2015+HDRip+KORSUB+x264","amp;tr":["udp%3A%2F%2Ftracker.leechers-paradise.org%3A6969","udp%3A%2F%2Fzer0day.ch%3A1337","udp%3A%2F%2Fopen.demonii.com%3A1337","udp%3A%2F%2Ftracker.coppersurfer.tk%3A6969","udp%3A%2F%2Fexodus.desync.com%3A6969"],"infoHash":"22d82b0c3ba99d6e677cc5898e1444e02b05e034","infoHashBuffer":{"type":"Buffer","data":[34,216,43,12,59,169,157,110,103,124,197,137,142,20,68,224,43,5,224,52]},"announce":[],"urlList":[]}}